# xmcd
#
# Track frame offsets: 
#        150
#        13222
#        27397
#        49572
#        70822
#        103257
#        117137
#        135525
#        161442
#        191480
#        211747
#
# Disc length: 3022 seconds
#
# Revision: 1
# Processed by: cddbd v1.5.2PL0 Copyright (c) Steve Scherf et al.
# Submitted via: ExactAudioCopy v0.99pb4
#
DISCID=910bcc0b
DTITLE=Wildwest - Abenteuer - Wer entdeckt America? (17)
DYEAR=2002
DGENRE=Speech
TTITLE0=Missionars-Eltern mit Problemen
TTITLE1=Onkel Ben
TTITLE2=Nächtlicher Ritt mit Zwischenfall
TTITLE3=Ein neues Zuhause
TTITLE4=Das Mädchen America
TTITLE5=In der neuen Schule
TTITLE6=Liebe kostet Überwindung
TTITLE7=Ein Bad mit Folgen
TTITLE8=Wer entdeckt America
TTITLE9=Auf dem Schrott gelandet
TTITLE10=Das war knapp
EXTD=
EXTT0=
EXTT1=
EXTT2=
EXTT3=
EXTT4=
EXTT5=
EXTT6=
EXTT7=
EXTT8=
EXTT9=
EXTT10=
PLAYORDER=
